<?xml version="1.0" encoding="UTF-8" standalone="no"?>
<svg width="80px" height="80px" viewBox="0 0 80 80" version="1.1" xmlns="http://www.w3.org/2000/svg" xmlns:xlink="http://www.w3.org/1999/xlink" xmlns:sketch="http://www.bohemiancoding.com/sketch/ns">
    <!-- Generator: Sketch 3.4.4 (17249) - http://www.bohemiancoding.com/sketch -->
    <title>house_villa</title>
    <desc>Created with Sketch.</desc>
    <defs></defs>
    <g id="Page-1" stroke="none" stroke-width="1" fill="none" fill-rule="evenodd" sketch:type="MSPage">
        <g id="house_villa" sketch:type="MSArtboardGroup" fill="#000000">
            <g id="homes-33" sketch:type="MSLayerGroup" transform="translate(6.000000, 11.000000)">
                <g id="Layer_1" sketch:type="MSShapeGroup">
                    <g id="Group">
                        <path d="M20.9,44.3 L11.1,44.3 C10.3,44.3 9.6,43.6 9.6,42.8 L9.6,33 C9.6,32.2 10.3,31.5 11.1,31.5 L20.9,31.5 C21.7,31.5 22.4,32.2 22.4,33 L22.4,42.8 C22.4,43.6 21.7,44.3 20.9,44.3 L20.9,44.3 Z M12.6,41.3 L19.4,41.3 L19.4,34.5 L12.6,34.5 L12.6,41.3 L12.6,41.3 Z" id="Shape"></path>
                        <path d="M56.6,44.3 L46.8,44.3 C46,44.3 45.3,43.6 45.3,42.8 L45.3,33 C45.3,32.2 46,31.5 46.8,31.5 L56.6,31.5 C57.4,31.5 58.1,32.2 58.1,33 L58.1,42.8 C58.1,43.6 57.5,44.3 56.6,44.3 L56.6,44.3 Z M48.4,41.3 L55.2,41.3 L55.2,34.5 L48.4,34.5 L48.4,41.3 L48.4,41.3 Z" id="Shape"></path>
                        <path d="M67.7,25.6 L55.8,8.6 C55.5,8.2 55.1,8 54.6,8 L39.8,8 L35.2,2.1 C34.6,1.4 33.4,1.4 32.8,2.1 L28.2,8 L28,8 L25,8 L25,1.5 C25,0.7 24.3,0 23.5,0 L17.5,0 C16.7,0 16,0.7 16,1.5 L16,8 L13.4,8 C12.9,8 12.5,8.2 12.2,8.6 L0.3,25.6 C7.77156117e-16,26.1 -0.1,26.7 0.2,27.2 C0.4,27.7 0.9,28 1.5,28 L3,28 L3,62.5 C3,63.3 3.7,64 4.5,64 L25.5,64 C26.3,64 27,63.3 27,62.5 L27,49 L41,49 L41,62.5 C41,63.3 41.7,64 42.5,64 L63.5,64 C64.3,64 65,63.3 65,62.5 L65,28 L66.5,28 C67.1,28 67.6,27.7 67.8,27.2 C68.1,26.7 68,26.1 67.7,25.6 L67.7,25.6 Z M53.8,11 L63.6,25 L53,25 L42.1,11 L53.8,11 L53.8,11 Z M34,5.5 L37.7,10.2 C37.8,10.3 37.9,10.5 38,10.6 L49.2,25 L18.8,25 L34,5.5 L34,5.5 Z M14.2,11 L17.5,11 C18.3,11 19,10.3 19,9.5 L19,3 L22,3 L22,9.5 C22,10.3 22.7,11 23.5,11 L25.9,11 L15,25 L4.4,25 L14.2,11 L14.2,11 Z M62,61 L44,61 L44,47.5 C44,46.7 43.3,46 42.5,46 L25.5,46 C24.7,46 24,46.7 24,47.5 L24,61 L6,61 L6,28 L15.7,28 L18,28 L50,28 L52.3,28 L62,28 L62,61 L62,61 Z" id="Shape"></path>
                    </g>
                </g>
            </g>
        </g>
    </g>
</svg>