<?xml version="1.0" encoding="UTF-8" standalone="no"?>
<svg width="80px" height="80px" viewBox="0 0 80 80" version="1.1" xmlns="http://www.w3.org/2000/svg" xmlns:xlink="http://www.w3.org/1999/xlink" xmlns:sketch="http://www.bohemiancoding.com/sketch/ns">
    <!-- Generator: Sketch 3.4.4 (17249) - http://www.bohemiancoding.com/sketch -->
    <title>apartment</title>
    <desc>Created with Sketch.</desc>
    <defs></defs>
    <g id="Page-1" stroke="none" stroke-width="1" fill="none" fill-rule="evenodd" sketch:type="MSPage">
        <g id="apartment" sketch:type="MSArtboardGroup" fill="#000000">
            <g id="homes-32" sketch:type="MSLayerGroup" transform="translate(6.000000, 5.000000)">
                <g id="Layer_1" sketch:type="MSShapeGroup">
                    <path d="M63.1,69.5 L55.7,69.5 C54.9,69.5 54.2,68.8 54.2,68 L54.2,57.3 L37.9,57.3 L37.9,68 C37.9,68.8 37.2,69.5 36.4,69.5 L4.3,69.5 C3.5,69.5 2.8,68.8 2.8,68 L2.8,36 L1.9,36 C1.3,36 0.7,35.6 0.5,35 C0.3,34.4 0.4,33.8 0.9,33.3 L16.2,19.7 C16.8,19.2 17.6,19.2 18.2,19.7 L27.7,28.3 L27.7,22 L25.9,22 C25.3,22 24.7,21.6 24.5,21 C24.3,20.4 24.4,19.8 24.9,19.3 L45.1,1.2 C45.7,0.7 46.5,0.7 47.1,1.2 L67.5,19.4 C68,19.8 68.1,20.5 67.9,21.1 C67.7,21.7 67.1,22.1 66.5,22.1 L64.6,22.1 L64.6,68.1 C64.6,68.8 63.9,69.5 63.1,69.5 L63.1,69.5 Z M57.2,66.5 L61.6,66.5 L61.6,21 C61.6,20.9 61.5,20.7 61.5,20.5 C61.5,19.8 62,19.2 62.6,19 L46.1,4.3 L29.6,19.1 C30.2,19.3 30.6,19.9 30.6,20.5 L30.6,66.5 L35,66.5 L35,55.8 C35,55 35.7,54.3 36.5,54.3 L55.8,54.3 C56.6,54.3 57.3,55 57.3,55.8 L57.3,66.5 L57.2,66.5 Z M5.8,66.5 L27.6,66.5 L27.6,32.4 C27.5,32.3 27.4,32.3 27.4,32.2 L17.2,22.9 L5.8,33 L5.8,66.5 L5.8,66.5 Z M20.2,62 L13.2,62 C12.4,62 11.7,61.3 11.7,60.5 L11.7,50.5 C11.7,49.7 12.4,49 13.2,49 L20.2,49 C21,49 21.7,49.7 21.7,50.5 L21.7,60.5 C21.7,61.3 21,62 20.2,62 L20.2,62 Z M14.7,59 L18.7,59 L18.7,52 L14.7,52 L14.7,59 L14.7,59 Z M57,51.1 L50.2,51.1 C49.4,51.1 48.7,50.4 48.7,49.6 L48.7,38.1 C48.7,37.3 49.4,36.6 50.2,36.6 L57,36.6 C57.8,36.6 58.5,37.3 58.5,38.1 L58.5,49.6 C58.5,50.5 57.8,51.1 57,51.1 L57,51.1 Z M51.6,48.1 L55.4,48.1 L55.4,39.6 L51.6,39.6 L51.6,48.1 L51.6,48.1 Z M42,51.1 L35.2,51.1 C34.4,51.1 33.7,50.4 33.7,49.6 L33.7,38.1 C33.7,37.3 34.4,36.6 35.2,36.6 L42,36.6 C42.8,36.6 43.5,37.3 43.5,38.1 L43.5,49.6 C43.5,50.5 42.9,51.1 42,51.1 L42,51.1 Z M36.7,48.1 L40.5,48.1 L40.5,39.6 L36.7,39.6 L36.7,48.1 L36.7,48.1 Z M20.2,46 L13.2,46 C12.4,46 11.7,45.3 11.7,44.5 L11.7,34.5 C11.7,33.7 12.4,33 13.2,33 L20.2,33 C21,33 21.7,33.7 21.7,34.5 L21.7,44.5 C21.7,45.3 21,46 20.2,46 L20.2,46 Z M14.7,43 L18.7,43 L18.7,36 L14.7,36 L14.7,43 L14.7,43 Z M57,33.5 L50.2,33.5 C49.4,33.5 48.7,32.8 48.7,32 L48.7,20.5 C48.7,19.7 49.4,19 50.2,19 L57,19 C57.8,19 58.5,19.7 58.5,20.5 L58.5,32 C58.5,32.9 57.8,33.5 57,33.5 L57,33.5 Z M51.6,30.5 L55.4,30.5 L55.4,22 L51.6,22 L51.6,30.5 L51.6,30.5 Z M42,33.5 L35.2,33.5 C34.4,33.5 33.7,32.8 33.7,32 L33.7,20.5 C33.7,19.7 34.4,19 35.2,19 L42,19 C42.8,19 43.5,19.7 43.5,20.5 L43.5,32 C43.5,32.9 42.9,33.5 42,33.5 L42,33.5 Z M36.7,30.5 L40.5,30.5 L40.5,22 L36.7,22 L36.7,30.5 L36.7,30.5 Z" id="Shape"></path>
                </g>
            </g>
        </g>
    </g>
</svg>