<?xml version="1.0" encoding="UTF-8" standalone="no"?>
<svg width="80px" height="80px" viewBox="0 0 80 80" version="1.1" xmlns="http://www.w3.org/2000/svg" xmlns:xlink="http://www.w3.org/1999/xlink" xmlns:sketch="http://www.bohemiancoding.com/sketch/ns">
    <!-- Generator: Sketch 3.4.4 (17249) - http://www.bohemiancoding.com/sketch -->
    <title>agriculture</title>
    <desc>Created with Sketch.</desc>
    <defs></defs>
    <g id="Page-1" stroke="none" stroke-width="1" fill="none" fill-rule="evenodd" sketch:type="MSPage">
        <g id="agriculture" sketch:type="MSArtboardGroup" fill="#000000">
            <g id="homes_Artboard-128" sketch:type="MSLayerGroup" transform="translate(6.000000, 6.000000)">
                <g id="Layer_1" sketch:type="MSShapeGroup">
                    <g id="Group">
                        <path d="M59.3,16.1 C55.2,16.1 51.8,12.7 51.8,8.6 C51.8,4.5 55.2,1.1 59.3,1.1 C63.4,1.1 66.8,4.5 66.8,8.6 C66.8,12.7 63.5,16.1 59.3,16.1 L59.3,16.1 Z M59.3,4.1 C56.8,4.1 54.8,6.1 54.8,8.6 C54.8,11.1 56.8,13.1 59.3,13.1 C61.8,13.1 63.8,11.1 63.8,8.6 C63.8,6.1 61.8,4.1 59.3,4.1 L59.3,4.1 Z" id="Shape"></path>
                        <path d="M67.6,45.1 C67.3,44.8 66.9,44.7 66.5,44.7 C59.1,44.6 52.1,45.3 45.7,46.5 L45.6,46.4 C42.9,44.6 39.6,43.2 36,42.1 L36,34.8 C37.9,34.6 39.6,33.9 40.9,32.6 C44,29.4 43.9,24 43.9,23.8 C43.9,23.3 43.6,22.9 43.3,22.6 C43.1,22.5 42.9,22.4 42.6,22.3 C44,19.3 43.9,16 43.9,15.9 C43.9,15.4 43.6,15 43.3,14.7 C42.9,14.4 42.4,14.4 42,14.5 C40.9,14.8 40,15.2 39.2,15.7 C39,11.8 36.1,8.4 36,8.2 C35.7,7.9 35.3,7.7 34.8,7.7 C34.3,7.7 33.9,7.9 33.6,8.3 C31.7,10.9 30.8,13.5 30.9,15.9 C30.3,15.6 29.7,15.3 29,15 C28.6,14.9 28.2,14.7 27.8,14.6 C27.4,14.5 26.9,14.5 26.5,14.8 C26.1,15.1 25.9,15.5 25.9,16 C25.9,16.2 25.8,19.5 27.2,22.4 C27,22.4 26.7,22.5 26.5,22.7 C26.1,23 25.9,23.4 25.9,23.9 C25.9,24.1 25.7,29.5 28.9,32.7 C30.1,33.9 31.6,34.6 33.3,34.8 L33.3,41.3 C27.1,39.8 20.3,39.4 14.3,40.1 L14.3,32.2 C16.6,32 18.6,31.2 20.1,29.6 C23.7,25.9 23.6,19.6 23.5,19.4 C23.5,18.9 23.2,18.5 22.9,18.2 C22.6,18 22.2,17.9 21.8,18 C23.7,14.5 23.6,10.3 23.6,10.1 C23.6,9.6 23.3,9.2 23,8.9 C22.6,8.6 22.1,8.6 21.7,8.7 C20.2,9.2 19,9.7 17.9,10.3 C17.9,5.6 14.2,1.3 14.1,1.1 C13.8,0.8 13.4,0.6 12.9,0.6 C12.4,0.6 12,0.8 11.7,1.2 C9.3,4.5 8.3,7.6 8.5,10.5 C7,9.7 5.6,9.1 4,8.6 C3.6,8.5 3.1,8.5 2.7,8.8 C2.3,9.1 2,9.5 2,10 C2,10.2 1.9,14.4 3.8,17.9 C3.4,17.8 3,17.9 2.7,18.1 C2.3,18.4 2,18.8 2,19.3 C2,19.6 1.8,25.8 5.4,29.5 C6.9,31 8.7,31.8 11,32 L11,40.3 C6.8,41 3.2,42.4 0.6,44.3 C0.2,44.7 0,45.2 0,45.6 L0,66.5 L0,66.5 C0,66.5 0,66.5 0,66.6 C0,66.7 0,66.9 0.1,67 L0.1,67 L0.1,67 C0.1,67.1 0.2,67.2 0.3,67.4 C0.3,67.4 0.3,67.4 0.3,67.5 C0.4,67.6 0.5,67.7 0.6,67.8 L0.6,67.8 C0.7,67.9 0.8,67.9 1,68 L1.1,68 L1.5,68 L66.3,68 C67.1,68 67.8,67.3 67.8,66.5 L68,46.1 C68,45.8 67.9,45.4 67.6,45.1 L67.6,45.1 Z M40.7,18.2 C40.5,19.6 40,21.4 38.8,22.6 C38.1,23.3 37.3,23.7 36.3,23.8 C36.3,22.5 36.9,20 40.7,18.2 L40.7,18.2 Z M40.7,26.1 C40.5,27.5 40,29.3 38.8,30.5 C38.1,31.2 37.3,31.6 36.3,31.7 C36.3,30.3 36.9,27.9 40.7,26.1 L40.7,26.1 Z M34.7,11.9 C35.5,13.3 36.2,15.1 36,16.7 C35.9,17.5 35.5,18.3 34.9,18.9 C34.5,18.4 34,17.5 33.8,16.4 C33.6,15.1 33.9,13.5 34.7,11.9 L34.7,11.9 Z M33.2,23.9 C32.2,23.7 31.4,23.3 30.7,22.7 C29.5,21.5 29,19.7 28.8,18.3 C32.6,20 33.2,22.5 33.2,23.9 L33.2,23.9 Z M30.8,30.5 C29.6,29.3 29.1,27.5 28.9,26.1 C31.6,27.4 32.7,29 33.1,30.4 L33.1,31.7 C32.1,31.5 31.4,31.1 30.8,30.5 L30.8,30.5 Z M17.6,27.4 C16.7,28.3 15.5,28.9 14.1,29 C14,27.3 14.7,23.8 20,21.5 C19.8,23.5 19.2,25.9 17.6,27.4 L17.6,27.4 Z M17.6,18.1 C16.7,19 15.5,19.6 14.1,19.7 C14,18 14.7,14.5 20,12.2 C19.8,14.1 19.2,16.5 17.6,18.1 L17.6,18.1 Z M12.6,4.6 C13.6,6.2 14.8,8.6 14.5,10.9 C14.3,12.1 13.8,13.1 12.8,13.9 C12.2,13.2 11.5,12.1 11.2,10.6 C10.9,8.8 11.3,6.8 12.6,4.6 L12.6,4.6 Z M11.1,19.7 C9.7,19.5 8.6,19 7.6,18.1 C6,16.5 5.4,14 5.1,12.2 C10.5,14.6 11.1,18 11.1,19.7 L11.1,19.7 Z M7.6,27.5 C6,25.9 5.4,23.4 5.2,21.6 C9.6,23.5 10.8,26.2 11.1,28.1 L11.1,29.1 C9.6,28.9 8.5,28.4 7.6,27.5 L7.6,27.5 Z M3,46.4 C11.2,41 30,41.6 41.3,47.4 C22.1,51.7 8.3,60 3,63.6 L3,46.4 L3,46.4 Z M64.8,65 L6.3,65 C14.8,59.6 36.4,47.8 65,47.6 L64.8,65 L64.8,65 Z" id="Shape"></path>
                    </g>
                </g>
            </g>
        </g>
    </g>
</svg>