<?xml version="1.0" encoding="UTF-8" standalone="no"?>
<svg width="80px" height="80px" viewBox="0 0 80 80" version="1.1" xmlns="http://www.w3.org/2000/svg" xmlns:xlink="http://www.w3.org/1999/xlink" xmlns:sketch="http://www.bohemiancoding.com/sketch/ns">
    <!-- Generator: Sketch 3.4.4 (17249) - http://www.bohemiancoding.com/sketch -->
    <title>commercial</title>
    <desc>Created with Sketch.</desc>
    <defs></defs>
    <g id="Page-1" stroke="none" stroke-width="1" fill="none" fill-rule="evenodd" sketch:type="MSPage">
        <g id="commercial" sketch:type="MSArtboardGroup" fill="#000000">
            <g id="homes_Artboard-126-copy" sketch:type="MSLayerGroup" transform="translate(8.000000, 6.000000)">
                <g id="Layer_1" sketch:type="MSShapeGroup">
                    <g id="Group">
                        <g transform="translate(5.000000, 5.000000)" id="Shape">
                            <path d="M12.1,11.5 L1.8,11.5 C1,11.5 0.3,10.8 0.3,10 L0.3,2.1 C0.3,1.3 1,0.6 1.8,0.6 L12.1,0.6 C12.9,0.6 13.6,1.3 13.6,2.1 L13.6,10 C13.6,10.9 12.9,11.5 12.1,11.5 L12.1,11.5 Z M3.3,8.5 L10.6,8.5 L10.6,3.6 L3.3,3.6 L3.3,8.5 L3.3,8.5 Z"></path>
                            <path d="M28.2,11.5 L17.9,11.5 C17.1,11.5 16.4,10.8 16.4,10 L16.4,2.1 C16.4,1.3 17.1,0.6 17.9,0.6 L28.2,0.6 C29,0.6 29.7,1.3 29.7,2.1 L29.7,10 C29.7,10.9 29,11.5 28.2,11.5 L28.2,11.5 Z M19.4,8.5 L26.7,8.5 L26.7,3.6 L19.4,3.6 L19.4,8.5 L19.4,8.5 Z"></path>
                            <path d="M12.1,26.2 L1.8,26.2 C1,26.2 0.3,25.5 0.3,24.7 L0.3,16.8 C0.3,16 1,15.3 1.8,15.3 L12.1,15.3 C12.9,15.3 13.6,16 13.6,16.8 L13.6,24.7 C13.6,25.5 12.9,26.2 12.1,26.2 L12.1,26.2 Z M3.3,23.2 L10.6,23.2 L10.6,18.3 L3.3,18.3 L3.3,23.2 L3.3,23.2 Z"></path>
                            <path d="M28.2,26.2 L17.9,26.2 C17.1,26.2 16.4,25.5 16.4,24.7 L16.4,16.8 C16.4,16 17.1,15.3 17.9,15.3 L28.2,15.3 C29,15.3 29.7,16 29.7,16.8 L29.7,24.7 C29.7,25.5 29,26.2 28.2,26.2 L28.2,26.2 Z M19.4,23.2 L26.7,23.2 L26.7,18.3 L19.4,18.3 L19.4,23.2 L19.4,23.2 Z"></path>
                            <path d="M12.1,40.8 L1.8,40.8 C1,40.8 0.3,40.1 0.3,39.3 L0.3,31.4 C0.3,30.6 1,29.9 1.8,29.9 L12.1,29.9 C12.9,29.9 13.6,30.6 13.6,31.4 L13.6,39.3 C13.6,40.1 12.9,40.8 12.1,40.8 L12.1,40.8 Z M3.3,37.8 L10.6,37.8 L10.6,32.9 L3.3,32.9 L3.3,37.8 L3.3,37.8 Z"></path>
                            <path d="M28.2,40.8 L17.9,40.8 C17.1,40.8 16.4,40.1 16.4,39.3 L16.4,31.4 C16.4,30.6 17.1,29.9 17.9,29.9 L28.2,29.9 C29,29.9 29.7,30.6 29.7,31.4 L29.7,39.3 C29.7,40.1 29,40.8 28.2,40.8 L28.2,40.8 Z M19.4,37.8 L26.7,37.8 L26.7,32.9 L19.4,32.9 L19.4,37.8 L19.4,37.8 Z"></path>
                        </g>
                        <path d="M57,32.3 L44.2,32.3 C43.4,32.3 42.7,31.6 42.7,30.8 L42.7,24.8 C42.7,24 43.4,23.3 44.2,23.3 L57,23.3 C57.8,23.3 58.5,24 58.5,24.8 L58.5,30.8 C58.5,31.7 57.8,32.3 57,32.3 L57,32.3 Z M45.7,29.3 L55.5,29.3 L55.5,26.3 L45.7,26.3 L45.7,29.3 L45.7,29.3 Z" id="Shape"></path>
                        <path d="M57,43.8 L44.2,43.8 C43.4,43.8 42.7,43.1 42.7,42.3 L42.7,36.3 C42.7,35.5 43.4,34.8 44.2,34.8 L57,34.8 C57.8,34.8 58.5,35.5 58.5,36.3 L58.5,42.3 C58.5,43.2 57.8,43.8 57,43.8 L57,43.8 Z M45.7,40.8 L55.5,40.8 L55.5,37.8 L45.7,37.8 L45.7,40.8 L45.7,40.8 Z" id="Shape"></path>
                        <path d="M57,55.7 L44.2,55.7 C43.4,55.7 42.7,55 42.7,54.2 L42.7,48.2 C42.7,47.4 43.4,46.7 44.2,46.7 L57,46.7 C57.8,46.7 58.5,47.4 58.5,48.2 L58.5,54.2 C58.5,55.1 57.8,55.7 57,55.7 L57,55.7 Z M45.7,52.7 L55.5,52.7 L55.5,49.7 L45.7,49.7 L45.7,52.7 L45.7,52.7 Z" id="Shape"></path>
                        <path d="M63.2,12 C62.8,11.7 62.3,11.6 61.8,11.8 L40,18.4 L40,1.5 C40,0.7 39.3,0 38.5,0 L1.5,0 C0.7,0 0,0.7 0,1.5 L0,66.5 C0,67.3 0.7,68 1.5,68 L10.5,68 C11.3,68 12,67.3 12,66.5 L12,52 L28,52 L28,66.5 C28,67.3 28.7,68 29.5,68 L38.5,68 L62.2,68 C63,68 64,67.3 64,66.5 L64,13.2 C64,12.7 63.6,12.3 63.2,12 L63.2,12 Z M29.5,49 L10.5,49 C9.7,49 9,49.7 9,50.5 L9,65 L3,65 L3,3 L37,3 L37,20.4 L37,65 L31,65 L31,50.5 C31,49.7 30.3,49 29.5,49 L29.5,49 Z M61,65 L40,65 L40,21.5 L61,15.2 L61,65 L61,65 Z" id="Shape"></path>
                    </g>
                </g>
            </g>
        </g>
    </g>
</svg>